{"accessors":[{"bufferView":0,"componentType":5125,"count":4272,"max":[1666.0],"min":[0.0],"type":"SCALAR"},{"bufferView":1,"componentType":5126,"count":1667,"max":[10.29936695098877,21.639219284057618,7.5],"min":[-13.809581756591797,-6.621493816375732,-7.361055124818772e-16],"type":"VEC3"},{"bufferView":2,"componentType":5126,"count":1667,"max":[0.9995916485786438,0.9999505877494812,1.0],"min":[-1.0,-0.998412013053894,-1.0],"type":"VEC3"},{"bufferView":3,"componentType":5125,"count":4368,"max":[1685.0],"min":[0.0],"type":"SCALAR"},{"bufferView":4,"componentType":5126,"count":1686,"max":[13.945323944091797,5.756803512573242,7.5],"min":[-10.172539710998536,-22.4946346282959,0.0],"type":"VEC3"},{"bufferView":5,"componentType":5126,"count":1686,"max":[0.9983567595481873,0.9980372190475464,1.0],"min":[-0.9997174739837647,-0.9999997019767761,-1.0],"type":"VEC3"}],"asset":{"generator":"SimLab GLTF","version":"2.0"},"bufferViews":[{"buffer":0,"byteLength":17088,"target":34963},{"buffer":0,"byteLength":20004,"byteOffset":17088,"byteStride":12,"target":34962},{"buffer":0,"byteLength":20004,"byteOffset":37092,"byteStride":12,"target":34962},{"buffer":0,"byteLength":17472,"byteOffset":57096,"target":34963},{"buffer":0,"byteLength":20232,"byteOffset":74568,"byteStride":12,"target":34962},{"buffer":0,"byteLength":20232,"byteOffset":94800,"byteStride":12,"target":34962}],"buffers":[{"byteLength":115032,"uri":"chrome.bin"}],"extensionsUsed":["KHR_materials_pbrSpecularGlossiness"],"materials":[{"extensions":{"KHR_materials_pbrSpecularGlossiness":{"diffuseFactor":[0.5647059082984924,0.5568627715110779,0.545098066329956,1.0],"specularFactor":[0.0,0.0,0.0],"glossinessFactor":0.5}},"name":"Chrome - Black","alphaMode":"MASK","doubleSided":true,"pbrMetallicRoughness":{"baseColorFactor":[0.5647059082984924,0.5568627715110779,0.545098066329956,1.0],"metallicFactor":0.5}}],"meshes":[{"primitives":[{"attributes":{"NORMAL":2,"POSITION":1},"indices":0,"material":0,"mode":4}]},{"primitives":[{"attributes":{"NORMAL":5,"POSITION":4},"indices":3,"material":0,"mode":4}]}],"nodes":[{"children":[1,2],"matrix":[1.0,0.0,0.0,0.0,0.0,4.4896593387466768e-11,-1.0,0.0,0.0,1.0,4.4896593387466768e-11,0.0,0.0,0.0,0.0,1.0]},{"name":"Camera-2","rotation":[-0.7071067690849304,0.0,0.0,-0.7071067690849304],"translation":[0.0006787109305150807,-1.8028541803359986,-0.004277076572179794]},{"name":"logo v1","children":[3,6],"rotation":[-0.7071067690849304,0.0,0.0,-0.7071067690849304],"scale":[0.009999999776482582,0.009999999776482582,0.009999999776482582]},{"name":"Body1","children":[5],"rotation":[0.0,0.0,0.0,-1.0]},{"mesh":0},{"children":[4]},{"name":"Body2","children":[8],"rotation":[0.0,0.0,0.0,-1.0]},{"mesh":1},{"children":[7]}],"scene":0,"scenes":[{"nodes":[0]}]}