<?xml version="1.0" standalone="no"?>
<!DOCTYPE svg PUBLIC "-//W3C//DTD SVG 20010904//EN"
 "http://www.w3.org/TR/2001/REC-SVG-20010904/DTD/svg10.dtd">
<svg version="1.0" xmlns="http://www.w3.org/2000/svg"
 width="700.000000pt" height="700.000000pt" viewBox="0 0 700.000000 700.000000"
 preserveAspectRatio="xMidYMid meet">
<metadata>
Created by potrace 1.14, written by Peter Selinger 2001-2017
</metadata>
<g transform="translate(0.000000,700.000000) scale(0.100000,-0.100000)"
fill="#000000" stroke="none">
<path d="M3508 6965 c-1 -1 -25 -5 -53 -8 -75 -8 -140 -36 -298 -130 -489
-290 -595 -353 -620 -366 -33 -18 -52 -30 -87 -52 -14 -9 -153 -92 -310 -184
-157 -92 -313 -185 -347 -207 -155 -99 -275 -273 -314 -456 -13 -60 -13 -66
-23 -202 -4 -47 -8 -105 -11 -130 -7 -75 -14 -160 -21 -255 -3 -49 -7 -101 -9
-115 -2 -14 -7 -74 -10 -135 -4 -60 -8 -117 -10 -126 -2 -8 -6 -65 -10 -125
-4 -60 -9 -116 -10 -126 -2 -9 -7 -65 -10 -125 -4 -59 -8 -110 -10 -113 -7
-11 -20 -262 -20 -370 0 -104 3 -122 29 -185 44 -106 115 -189 218 -251 46
-28 293 -182 346 -216 15 -10 38 -24 52 -32 14 -8 140 -86 280 -175 577 -362
572 -359 648 -356 95 5 194 75 220 156 10 29 59 317 77 449 3 25 10 70 15 100
5 30 21 127 34 215 29 187 95 609 102 645 2 14 11 72 19 130 9 58 22 130 30
161 30 121 102 245 192 333 37 35 818 590 1163 826 243 166 305 219 330 285
31 81 6 204 -54 267 -26 27 -1262 801 -1326 831 -49 22 -191 52 -202 42z"/>
<path d="M4040 4470 c-98 -27 -170 -119 -184 -235 -3 -27 -8 -61 -11 -75 -2
-13 -7 -42 -10 -65 -3 -22 -10 -65 -15 -95 -5 -30 -12 -75 -15 -100 -3 -25 -8
-52 -10 -60 -3 -8 -7 -35 -10 -60 -3 -25 -9 -70 -15 -100 -5 -30 -12 -73 -15
-95 -3 -22 -10 -65 -15 -95 -5 -30 -11 -71 -14 -90 -4 -29 -24 -153 -62 -395
-2 -16 -6 -41 -9 -55 -2 -14 -7 -45 -10 -70 -33 -245 -66 -356 -140 -470 -75
-116 -124 -157 -497 -415 -79 -55 -312 -218 -398 -278 -19 -14 -71 -50 -115
-80 -44 -31 -140 -97 -212 -149 -73 -51 -163 -113 -199 -138 -153 -104 -179
-142 -179 -265 0 -87 13 -122 63 -173 20 -21 499 -326 786 -502 61 -37 271
-168 371 -231 178 -112 243 -136 359 -137 117 0 191 27 381 143 39 23 160 96
270 160 110 65 310 183 445 263 135 80 333 197 440 260 264 156 321 203 405
332 73 113 108 223 120 380 3 41 7 95 10 120 2 25 7 88 10 140 3 52 8 106 10
120 2 14 7 68 10 120 4 52 8 106 10 120 2 14 6 74 10 134 4 60 8 116 10 125 1
9 6 63 10 121 4 58 8 121 10 140 2 19 6 73 10 120 3 47 8 101 10 120 25 231
24 378 -4 463 -45 135 -108 201 -318 331 -87 54 -180 113 -208 131 -27 17
-219 137 -425 265 -206 128 -398 248 -426 266 -29 19 -65 39 -80 45 -35 14
-119 19 -154 9z"/>
</g>
</svg>
